<mxfile host="app.diagrams.net" modified="2022-07-14T21:54:22.189Z" agent="5.0 (Windows NT 10.0; Win64; x64) AppleWebKit/537.36 (KHTML, like Gecko) Chrome/103.0.0.0 Safari/537.36" etag="oWggILbsXvn9rVQE0tkJ" version="20.1.1" type="github">
  <diagram id="C5RBs43oDa-KdzZeNtuy" name="Page-1">
    <mxGraphModel dx="2681" dy="2241" grid="1" gridSize="10" guides="1" tooltips="1" connect="1" arrows="1" fold="1" page="1" pageScale="1" pageWidth="827" pageHeight="1169" math="0" shadow="0">
      <root>
        <mxCell id="WIyWlLk6GJQsqaUBKTNV-0" />
        <mxCell id="WIyWlLk6GJQsqaUBKTNV-1" parent="WIyWlLk6GJQsqaUBKTNV-0" />
        <mxCell id="5VpauIetaEW60hhdaAun-5" value="&lt;font style=&quot;font-size: 16px;&quot;&gt;AWS S3&lt;br&gt;&lt;/font&gt;" style="shape=cylinder3;whiteSpace=wrap;html=1;boundedLbl=1;backgroundOutline=1;size=15;" vertex="1" parent="WIyWlLk6GJQsqaUBKTNV-1">
          <mxGeometry x="-490" y="625" width="250" height="190" as="geometry" />
        </mxCell>
        <mxCell id="5VpauIetaEW60hhdaAun-6" value="S3 hibu-sfdc-sow" style="swimlane;startSize=20;horizontal=0;childLayout=treeLayout;horizontalTree=1;resizable=0;containerType=tree;fontSize=16;" vertex="1" parent="WIyWlLk6GJQsqaUBKTNV-1">
          <mxGeometry x="-660" y="-50" width="620" height="640" as="geometry" />
        </mxCell>
        <mxCell id="5VpauIetaEW60hhdaAun-7" value="hibu-sfdc-sow" style="whiteSpace=wrap;html=1;fontSize=16;" vertex="1" parent="5VpauIetaEW60hhdaAun-6">
          <mxGeometry x="40" y="340" width="110" height="40" as="geometry" />
        </mxCell>
        <mxCell id="5VpauIetaEW60hhdaAun-8" value="test" style="whiteSpace=wrap;html=1;fontSize=16;" vertex="1" parent="5VpauIetaEW60hhdaAun-6">
          <mxGeometry x="200" y="180" width="100" height="40" as="geometry" />
        </mxCell>
        <mxCell id="5VpauIetaEW60hhdaAun-9" value="" style="edgeStyle=elbowEdgeStyle;elbow=horizontal;html=1;rounded=0;fontSize=16;" edge="1" parent="5VpauIetaEW60hhdaAun-6" source="5VpauIetaEW60hhdaAun-7" target="5VpauIetaEW60hhdaAun-8">
          <mxGeometry relative="1" as="geometry" />
        </mxCell>
        <mxCell id="5VpauIetaEW60hhdaAun-10" value="prod" style="whiteSpace=wrap;html=1;fontSize=16;" vertex="1" parent="5VpauIetaEW60hhdaAun-6">
          <mxGeometry x="200" y="500" width="100" height="40" as="geometry" />
        </mxCell>
        <mxCell id="5VpauIetaEW60hhdaAun-11" value="" style="edgeStyle=elbowEdgeStyle;elbow=horizontal;html=1;rounded=0;fontSize=16;" edge="1" parent="5VpauIetaEW60hhdaAun-6" source="5VpauIetaEW60hhdaAun-7" target="5VpauIetaEW60hhdaAun-10">
          <mxGeometry relative="1" as="geometry" />
        </mxCell>
        <mxCell id="5VpauIetaEW60hhdaAun-12" value="" style="edgeStyle=elbowEdgeStyle;elbow=horizontal;html=1;rounded=0;fontSize=16;" edge="1" target="5VpauIetaEW60hhdaAun-13" source="5VpauIetaEW60hhdaAun-8" parent="5VpauIetaEW60hhdaAun-6">
          <mxGeometry relative="1" as="geometry">
            <mxPoint x="250" y="-346" as="sourcePoint" />
          </mxGeometry>
        </mxCell>
        <mxCell id="5VpauIetaEW60hhdaAun-13" value="templates" style="whiteSpace=wrap;html=1;fontSize=16;" vertex="1" parent="5VpauIetaEW60hhdaAun-6">
          <mxGeometry x="350" y="100" width="100" height="40" as="geometry" />
        </mxCell>
        <mxCell id="5VpauIetaEW60hhdaAun-14" value="" style="edgeStyle=elbowEdgeStyle;elbow=horizontal;html=1;rounded=0;fontSize=16;" edge="1" target="5VpauIetaEW60hhdaAun-15" source="5VpauIetaEW60hhdaAun-8" parent="5VpauIetaEW60hhdaAun-6">
          <mxGeometry relative="1" as="geometry">
            <mxPoint x="250" y="-346" as="sourcePoint" />
          </mxGeometry>
        </mxCell>
        <mxCell id="5VpauIetaEW60hhdaAun-15" value="&amp;lt;businessId&amp;gt;" style="whiteSpace=wrap;html=1;fontSize=16;" vertex="1" parent="5VpauIetaEW60hhdaAun-6">
          <mxGeometry x="350" y="260" width="100" height="40" as="geometry" />
        </mxCell>
        <mxCell id="5VpauIetaEW60hhdaAun-16" value="" style="edgeStyle=elbowEdgeStyle;elbow=horizontal;html=1;rounded=0;fontSize=16;" edge="1" target="5VpauIetaEW60hhdaAun-17" source="5VpauIetaEW60hhdaAun-15" parent="5VpauIetaEW60hhdaAun-6">
          <mxGeometry relative="1" as="geometry">
            <mxPoint x="400" y="-306" as="sourcePoint" />
          </mxGeometry>
        </mxCell>
        <mxCell id="5VpauIetaEW60hhdaAun-17" value="&amp;lt;sow id&amp;gt;.pdf" style="whiteSpace=wrap;html=1;fontSize=16;" vertex="1" parent="5VpauIetaEW60hhdaAun-6">
          <mxGeometry x="500" y="260" width="100" height="40" as="geometry" />
        </mxCell>
        <mxCell id="5VpauIetaEW60hhdaAun-18" value="" style="edgeStyle=elbowEdgeStyle;elbow=horizontal;html=1;rounded=0;fontSize=16;" edge="1" target="5VpauIetaEW60hhdaAun-19" source="5VpauIetaEW60hhdaAun-13" parent="5VpauIetaEW60hhdaAun-6">
          <mxGeometry relative="1" as="geometry">
            <mxPoint x="400" y="-306" as="sourcePoint" />
          </mxGeometry>
        </mxCell>
        <mxCell id="5VpauIetaEW60hhdaAun-19" value="index.html" style="whiteSpace=wrap;html=1;fontSize=16;" vertex="1" parent="5VpauIetaEW60hhdaAun-6">
          <mxGeometry x="500" y="20" width="100" height="40" as="geometry" />
        </mxCell>
        <mxCell id="5VpauIetaEW60hhdaAun-20" value="" style="edgeStyle=elbowEdgeStyle;elbow=horizontal;html=1;rounded=0;fontSize=16;" edge="1" target="5VpauIetaEW60hhdaAun-21" source="5VpauIetaEW60hhdaAun-13" parent="5VpauIetaEW60hhdaAun-6">
          <mxGeometry relative="1" as="geometry">
            <mxPoint x="400" y="-306" as="sourcePoint" />
          </mxGeometry>
        </mxCell>
        <mxCell id="5VpauIetaEW60hhdaAun-21" value="header.html" style="whiteSpace=wrap;html=1;fontSize=16;" vertex="1" parent="5VpauIetaEW60hhdaAun-6">
          <mxGeometry x="500" y="100" width="100" height="40" as="geometry" />
        </mxCell>
        <mxCell id="5VpauIetaEW60hhdaAun-22" value="" style="edgeStyle=elbowEdgeStyle;elbow=horizontal;html=1;rounded=0;fontSize=16;" edge="1" target="5VpauIetaEW60hhdaAun-23" source="5VpauIetaEW60hhdaAun-13" parent="5VpauIetaEW60hhdaAun-6">
          <mxGeometry relative="1" as="geometry">
            <mxPoint x="400" y="-150" as="sourcePoint" />
          </mxGeometry>
        </mxCell>
        <mxCell id="5VpauIetaEW60hhdaAun-23" value="footer.html" style="whiteSpace=wrap;html=1;fontSize=16;" vertex="1" parent="5VpauIetaEW60hhdaAun-6">
          <mxGeometry x="500" y="180" width="100" height="40" as="geometry" />
        </mxCell>
        <mxCell id="5VpauIetaEW60hhdaAun-37" value="" style="edgeStyle=elbowEdgeStyle;elbow=horizontal;html=1;rounded=0;fontSize=16;" edge="1" target="5VpauIetaEW60hhdaAun-38" source="5VpauIetaEW60hhdaAun-10" parent="5VpauIetaEW60hhdaAun-6">
          <mxGeometry relative="1" as="geometry">
            <mxPoint x="250" y="146" as="sourcePoint" />
          </mxGeometry>
        </mxCell>
        <mxCell id="5VpauIetaEW60hhdaAun-38" value="templates" style="whiteSpace=wrap;html=1;fontSize=16;" vertex="1" parent="5VpauIetaEW60hhdaAun-6">
          <mxGeometry x="350" y="420" width="100" height="40" as="geometry" />
        </mxCell>
        <mxCell id="5VpauIetaEW60hhdaAun-39" value="" style="edgeStyle=elbowEdgeStyle;elbow=horizontal;html=1;rounded=0;fontSize=16;" edge="1" target="5VpauIetaEW60hhdaAun-40" source="5VpauIetaEW60hhdaAun-10" parent="5VpauIetaEW60hhdaAun-6">
          <mxGeometry relative="1" as="geometry">
            <mxPoint x="250" y="146" as="sourcePoint" />
          </mxGeometry>
        </mxCell>
        <mxCell id="5VpauIetaEW60hhdaAun-40" value="&amp;lt;businessId&amp;gt;" style="whiteSpace=wrap;html=1;fontSize=16;" vertex="1" parent="5VpauIetaEW60hhdaAun-6">
          <mxGeometry x="350" y="580" width="100" height="40" as="geometry" />
        </mxCell>
        <mxCell id="5VpauIetaEW60hhdaAun-41" value="" style="edgeStyle=elbowEdgeStyle;elbow=horizontal;html=1;rounded=0;fontSize=16;" edge="1" target="5VpauIetaEW60hhdaAun-42" source="5VpauIetaEW60hhdaAun-38" parent="5VpauIetaEW60hhdaAun-6">
          <mxGeometry relative="1" as="geometry">
            <mxPoint x="400" y="246" as="sourcePoint" />
          </mxGeometry>
        </mxCell>
        <mxCell id="5VpauIetaEW60hhdaAun-42" value="index.html" style="whiteSpace=wrap;html=1;fontSize=16;" vertex="1" parent="5VpauIetaEW60hhdaAun-6">
          <mxGeometry x="500" y="340" width="100" height="40" as="geometry" />
        </mxCell>
        <mxCell id="5VpauIetaEW60hhdaAun-43" value="" style="edgeStyle=elbowEdgeStyle;elbow=horizontal;html=1;rounded=0;fontSize=16;" edge="1" target="5VpauIetaEW60hhdaAun-44" source="5VpauIetaEW60hhdaAun-38" parent="5VpauIetaEW60hhdaAun-6">
          <mxGeometry relative="1" as="geometry">
            <mxPoint x="400" y="246" as="sourcePoint" />
          </mxGeometry>
        </mxCell>
        <mxCell id="5VpauIetaEW60hhdaAun-44" value="header.html" style="whiteSpace=wrap;html=1;fontSize=16;" vertex="1" parent="5VpauIetaEW60hhdaAun-6">
          <mxGeometry x="500" y="420" width="100" height="40" as="geometry" />
        </mxCell>
        <mxCell id="5VpauIetaEW60hhdaAun-45" value="" style="edgeStyle=elbowEdgeStyle;elbow=horizontal;html=1;rounded=0;fontSize=16;" edge="1" target="5VpauIetaEW60hhdaAun-46" source="5VpauIetaEW60hhdaAun-38" parent="5VpauIetaEW60hhdaAun-6">
          <mxGeometry relative="1" as="geometry">
            <mxPoint x="400" y="562" as="sourcePoint" />
          </mxGeometry>
        </mxCell>
        <mxCell id="5VpauIetaEW60hhdaAun-46" value="footer.html" style="whiteSpace=wrap;html=1;fontSize=16;" vertex="1" parent="5VpauIetaEW60hhdaAun-6">
          <mxGeometry x="500" y="500" width="100" height="40" as="geometry" />
        </mxCell>
        <mxCell id="5VpauIetaEW60hhdaAun-47" value="" style="edgeStyle=elbowEdgeStyle;elbow=horizontal;html=1;rounded=0;fontSize=16;" edge="1" target="5VpauIetaEW60hhdaAun-48" source="5VpauIetaEW60hhdaAun-40" parent="5VpauIetaEW60hhdaAun-6">
          <mxGeometry relative="1" as="geometry">
            <mxPoint x="400" y="906" as="sourcePoint" />
          </mxGeometry>
        </mxCell>
        <mxCell id="5VpauIetaEW60hhdaAun-48" value="&amp;lt;sow&amp;gt;.pdf" style="whiteSpace=wrap;html=1;fontSize=16;" vertex="1" parent="5VpauIetaEW60hhdaAun-6">
          <mxGeometry x="500" y="580" width="100" height="40" as="geometry" />
        </mxCell>
        <mxCell id="5VpauIetaEW60hhdaAun-71" value="" style="edgeStyle=orthogonalEdgeStyle;rounded=0;orthogonalLoop=1;jettySize=auto;html=1;fontSize=16;" edge="1" parent="WIyWlLk6GJQsqaUBKTNV-1" source="5VpauIetaEW60hhdaAun-50" target="5VpauIetaEW60hhdaAun-63">
          <mxGeometry relative="1" as="geometry">
            <mxPoint x="350" y="690" as="targetPoint" />
          </mxGeometry>
        </mxCell>
        <mxCell id="5VpauIetaEW60hhdaAun-72" value="Yes" style="edgeLabel;html=1;align=center;verticalAlign=middle;resizable=0;points=[];fontSize=16;" vertex="1" connectable="0" parent="5VpauIetaEW60hhdaAun-71">
          <mxGeometry x="-0.3378" y="3" relative="1" as="geometry">
            <mxPoint as="offset" />
          </mxGeometry>
        </mxCell>
        <mxCell id="5VpauIetaEW60hhdaAun-75" style="edgeStyle=orthogonalEdgeStyle;rounded=0;orthogonalLoop=1;jettySize=auto;html=1;entryX=1;entryY=0.5;entryDx=0;entryDy=0;fontSize=16;" edge="1" parent="WIyWlLk6GJQsqaUBKTNV-1" source="5VpauIetaEW60hhdaAun-50" target="5VpauIetaEW60hhdaAun-74">
          <mxGeometry relative="1" as="geometry" />
        </mxCell>
        <mxCell id="5VpauIetaEW60hhdaAun-76" value="No" style="edgeLabel;html=1;align=center;verticalAlign=middle;resizable=0;points=[];fontSize=16;" vertex="1" connectable="0" parent="5VpauIetaEW60hhdaAun-75">
          <mxGeometry x="-0.2588" y="2" relative="1" as="geometry">
            <mxPoint as="offset" />
          </mxGeometry>
        </mxCell>
        <mxCell id="5VpauIetaEW60hhdaAun-50" value="Html Templates in Cache?" style="rhombus;whiteSpace=wrap;html=1;fontSize=16;" vertex="1" parent="WIyWlLk6GJQsqaUBKTNV-1">
          <mxGeometry x="150" y="520" width="280" height="220" as="geometry" />
        </mxCell>
        <mxCell id="5VpauIetaEW60hhdaAun-52" style="edgeStyle=orthogonalEdgeStyle;rounded=0;orthogonalLoop=1;jettySize=auto;html=1;fontSize=16;" edge="1" parent="WIyWlLk6GJQsqaUBKTNV-1" source="5VpauIetaEW60hhdaAun-51" target="5VpauIetaEW60hhdaAun-50">
          <mxGeometry relative="1" as="geometry" />
        </mxCell>
        <mxCell id="5VpauIetaEW60hhdaAun-53" value="&amp;nbsp;POST /sow-api/pdf/&amp;lt;businessId&amp;gt;/&amp;lt;sowId&amp;gt;&amp;nbsp;&lt;br&gt;with payload" style="edgeLabel;html=1;align=center;verticalAlign=middle;resizable=0;points=[];fontSize=16;labelBorderColor=#6666FF;spacingTop=0;spacingLeft=2;" vertex="1" connectable="0" parent="5VpauIetaEW60hhdaAun-52">
          <mxGeometry x="-0.1888" y="-3" relative="1" as="geometry">
            <mxPoint as="offset" />
          </mxGeometry>
        </mxCell>
        <mxCell id="5VpauIetaEW60hhdaAun-51" value="SFDC" style="rounded=0;whiteSpace=wrap;html=1;fontSize=16;" vertex="1" parent="WIyWlLk6GJQsqaUBKTNV-1">
          <mxGeometry x="680" y="210" width="310" height="150" as="geometry" />
        </mxCell>
        <mxCell id="5VpauIetaEW60hhdaAun-69" style="edgeStyle=orthogonalEdgeStyle;rounded=0;orthogonalLoop=1;jettySize=auto;html=1;fontSize=16;" edge="1" parent="WIyWlLk6GJQsqaUBKTNV-1" source="5VpauIetaEW60hhdaAun-63" target="5VpauIetaEW60hhdaAun-5">
          <mxGeometry relative="1" as="geometry" />
        </mxCell>
        <mxCell id="5VpauIetaEW60hhdaAun-80" value="Save to S3" style="edgeLabel;html=1;align=center;verticalAlign=middle;resizable=0;points=[];fontSize=16;" vertex="1" connectable="0" parent="5VpauIetaEW60hhdaAun-69">
          <mxGeometry x="-0.2415" relative="1" as="geometry">
            <mxPoint as="offset" />
          </mxGeometry>
        </mxCell>
        <mxCell id="5VpauIetaEW60hhdaAun-63" value="Generate PDF" style="rounded=0;whiteSpace=wrap;html=1;labelBorderColor=none;fontSize=16;" vertex="1" parent="WIyWlLk6GJQsqaUBKTNV-1">
          <mxGeometry x="230" y="1010" width="120" height="60" as="geometry" />
        </mxCell>
        <mxCell id="5VpauIetaEW60hhdaAun-79" style="edgeStyle=orthogonalEdgeStyle;rounded=0;orthogonalLoop=1;jettySize=auto;html=1;exitX=1;exitY=0.5;exitDx=0;exitDy=0;entryX=0.25;entryY=0;entryDx=0;entryDy=0;fontSize=16;" edge="1" parent="WIyWlLk6GJQsqaUBKTNV-1" source="5VpauIetaEW60hhdaAun-65" target="5VpauIetaEW60hhdaAun-63">
          <mxGeometry relative="1" as="geometry" />
        </mxCell>
        <mxCell id="5VpauIetaEW60hhdaAun-65" value="Cache Template&lt;br&gt;(1 hour)" style="rounded=0;whiteSpace=wrap;html=1;labelBorderColor=none;fontSize=16;" vertex="1" parent="WIyWlLk6GJQsqaUBKTNV-1">
          <mxGeometry x="-150" y="790" width="120" height="60" as="geometry" />
        </mxCell>
        <mxCell id="5VpauIetaEW60hhdaAun-77" style="edgeStyle=orthogonalEdgeStyle;rounded=0;orthogonalLoop=1;jettySize=auto;html=1;fontSize=16;" edge="1" parent="WIyWlLk6GJQsqaUBKTNV-1" source="5VpauIetaEW60hhdaAun-74" target="5VpauIetaEW60hhdaAun-5">
          <mxGeometry relative="1" as="geometry" />
        </mxCell>
        <mxCell id="5VpauIetaEW60hhdaAun-78" style="edgeStyle=orthogonalEdgeStyle;rounded=0;orthogonalLoop=1;jettySize=auto;html=1;entryX=0.5;entryY=0;entryDx=0;entryDy=0;fontSize=16;" edge="1" parent="WIyWlLk6GJQsqaUBKTNV-1" source="5VpauIetaEW60hhdaAun-74" target="5VpauIetaEW60hhdaAun-65">
          <mxGeometry relative="1" as="geometry" />
        </mxCell>
        <mxCell id="5VpauIetaEW60hhdaAun-74" value="Read template form S3" style="rounded=0;whiteSpace=wrap;html=1;labelBorderColor=none;fontSize=16;strokeColor=default;" vertex="1" parent="WIyWlLk6GJQsqaUBKTNV-1">
          <mxGeometry x="-150" y="660" width="120" height="60" as="geometry" />
        </mxCell>
      </root>
    </mxGraphModel>
  </diagram>
</mxfile>
